<?xml version="1.0" encoding="UTF-8"?>
<svg width="182px" height="182px" viewBox="0 0 182 182" version="1.1" xmlns="http://www.w3.org/2000/svg" xmlns:xlink="http://www.w3.org/1999/xlink">
    <title>data-logo</title>
    <g id="data-logo" stroke="none" stroke-width="1" fill="none" fill-rule="evenodd">
        <g id="small-copy" transform="translate(0.000000, 9.000000)">
            <path d="M95.1659679,4.33227599 L173.719657,32.1284268 C179.486962,34.1691826 182.795785,40.2218318 181.400338,46.1782756 L164.152856,119.798841 C163.385573,123.073972 161.278872,125.876688 158.346072,127.524077 L97.0398652,161.960505 C93.3901361,164.010602 88.9358533,164.010602 85.2861241,161.960505 L23.9799173,127.524077 C21.0471171,125.876688 18.9404158,123.073972 18.1731334,119.798841 L0.925651673,46.1782756 C-0.469796128,40.2218318 2.83902725,34.1691826 8.60633281,32.1284268 L87.1600214,4.33227599 C89.7499886,3.41581845 92.5760007,3.41581845 95.1659679,4.33227599 Z" id="Rectangle" fill="#5A576F"></path>
            <path d="M95.1659679,4.33227599 L158.541459,26.7569328 L164.319988,28.8471667 C168.474879,30.3498522 170.624916,34.9362239 169.122231,39.0911146 C168.371471,41.166949 166.796352,42.8403213 164.769686,43.7151656 L100.619931,71.4064763 C94.5816231,74.0130127 87.7382132,74.0273493 81.6890369,71.4461357 L16.7337685,43.7293991 C12.6699891,41.9953642 10.781358,37.295307 12.5153929,33.2315276 C13.1335962,31.7827437 14.1591278,30.5626515 15.4482306,29.7066361 L87.1600214,4.33227599 C89.7499886,3.41581845 92.5760007,3.41581845 95.1659679,4.33227599 Z" id="Combined-Shape" fill="#292929" style="mix-blend-mode: normal;" opacity="0.469284784"></path>
            <path d="M94.5821279,88.5655993 L153.348598,62.6899519 C156.381335,61.354598 159.922373,62.7305989 161.257726,65.763336 C161.760459,66.905098 161.894792,68.1751733 161.642033,69.3968417 L152.575011,113.220779 C152.211004,114.980146 151.077743,116.483807 149.486745,117.318429 L99.7872962,143.390271 C96.8528508,144.929652 93.2260978,143.798729 91.6867166,140.864284 C91.2356497,140.004437 91,139.047965 91,138.076988 L91,94.0568554 C91,91.6782038 92.4051637,89.5241452 94.5821279,88.5655993 Z" id="Rectangle" fill="#FF8162" style="mix-blend-mode: hard-light;"></path>
            <g id="pimps" transform="translate(31.000000, 0.000000)">
                <g id="db-copy-3" transform="translate(85.714286, 12.827586)">
                    <path d="M0,6.87147335 L34.2857143,6.87147335 L34.2857143,19.6990596 C34.2857143,23.2412997 26.6105957,26.1128527 17.1428571,26.1128527 C7.67511857,26.1128527 0,23.2412997 0,19.6990596 L0,19.6990596 L0,6.87147335 Z" id="Combined-Shape" fill="#FF5855"></path>
                    <ellipse id="Oval" fill="#5A576F" cx="17.1428571" cy="6.87147335" rx="17.1428571" ry="6.4137931"></ellipse>
                </g>
                <g id="db-copy-5" transform="translate(42.857143, 0.000000)">
                    <path d="M0,6.87147335 L34.2857143,6.87147335 L34.2857143,19.6990596 C34.2857143,23.2412997 26.6105957,26.1128527 17.1428571,26.1128527 C7.67511857,26.1128527 0,23.2412997 0,19.6990596 L0,19.6990596 L0,6.87147335 Z" id="Combined-Shape" fill="#FF5855"></path>
                    <ellipse id="Oval" fill="#5A576F" cx="17.1428571" cy="6.87147335" rx="17.1428571" ry="6.4137931"></ellipse>
                </g>
                <g id="db-copy-6" transform="translate(0.000000, 17.103448)">
                    <path d="M0,6.87147335 L34.2857143,6.87147335 L34.2857143,19.6990596 C34.2857143,23.2412997 26.6105957,26.1128527 17.1428571,26.1128527 C7.67511857,26.1128527 0,23.2412997 0,19.6990596 L0,19.6990596 L0,6.87147335 Z" id="Combined-Shape" fill="#FF5855"></path>
                    <ellipse id="Oval" fill="#5A576F" cx="17.1428571" cy="6.87147335" rx="17.1428571" ry="6.4137931"></ellipse>
                </g>
                <g id="db-copy-4" transform="translate(42.857143, 34.206897)">
                    <path d="M0,6.87147335 L34.2857143,6.87147335 L34.2857143,19.6990596 C34.2857143,23.2412997 26.6105957,26.1128527 17.1428571,26.1128527 C7.67511857,26.1128527 0,23.2412997 0,19.6990596 L0,19.6990596 L0,6.87147335 Z" id="Combined-Shape" fill="#FF5855"></path>
                    <ellipse id="Oval" fill="#5A576F" cx="17.1428571" cy="6.87147335" rx="17.1428571" ry="6.4137931"></ellipse>
                </g>
            </g>
        </g>
    </g>
</svg>